# AST/ASF file generated using VICON BodyLanguage
# -----------------------------------------------
:version 1.10
:name VICON
:units
  mass 1.0
  length 0.45
  angle deg
:documentation
   .ast/.asf automatically generated from VICON data using
   VICON BodyBuilder and BodyLanguage model FoxedUp or BRILLIANT.MOD
:root
   order TX TY TZ RX RY RZ
   axis XYZ
   position 0 0 0  
   orientation 0 0 0 
:bonedata
  begin
     id 1 
     name lhipjoint
     direction 0.671379 -0.66392 0.329334 
     length 2.38647 
     axis 0 0 0  XYZ
  end
  begin
     id 2 
     name lfemur
     direction 0.34202 -0.939693 0  
     length 6.48179  
     axis 0 0 20  XYZ
    dof rx ry rz
    limits (-160.0 20.0)
           (-70.0 70.0)
           (-60.0 70.0)
  end
  begin
     id 3 
     name ltibia
     direction 0.34202 -0.939693 0   
     length 6.86524   
     axis 0 0 20   XYZ
    dof rx
    limits (-10.0 170.0)
  end
  begin
     id 4 
     name lfoot
     direction 0.204886 -0.562919 0.800715   
     length 1.73031   
     axis -90 7.62852e-016 20   XYZ
    dof rx rz
    limits (-45.0 90.0)
           (-70.0 20.0)
  end
  begin
     id 5 
     name ltoes
     direction 1.53548e-011 -4.21841e-011 1   
     length 0.828161   
     axis -90 7.62852e-016 20   XYZ
    dof rx
    limits (-90.0 20.0)
  end
  begin
     id 6 
     name rhipjoint
     direction -0.662732 -0.670855 0.332775   
     length 2.3618  
     axis 0 0 0  XYZ 
  end
  begin
     id 7 
     name rfemur
     direction -0.34202 -0.939693 0   
     length 6.3025   
     axis 0 0 -20   XYZ
    dof rx ry rz
    limits (-160.0 20.0)
           (-70.0 70.0)
           (-70.0 60.0)
  end
  begin
     id 8 
     name rtibia
     direction -0.34202 -0.939693 0   
     length 6.8732   
     axis 0 0 -20   XYZ
    dof rx
    limits (-10.0 170.0)
 end
 begin
     id 9 
     name rfoot
     direction -0.173856 -0.477665 0.861168   
     length 1.54784  
     axis -90 -7.62852e-016 -20   XYZ
    dof rx rz
    limits (-45.0 90.0)
           (-20.0 70.0)
  end
  begin
     id 10 
     name rtoes
     direction -1.53562e-011 -4.21802e-011 1   
     length 0.759618   
     axis -90 -7.62852e-016 -20   XYZ
    dof rx
    limits (-90.0 20.0)
  end
  begin
     id 11 
     name lowerback
     direction -0.0278357 0.999497 -0.0151789   
     length 1.97203   
     axis 0 0 0   XYZ
    dof rx ry rz
    limits (-20.0 45.0)
           (-30.0 30.0)
           (-30.0 30.0)
  end
  begin
     id 12 
     name upperback
     direction -0.00360622 0.997542 0.0699804   
     length 1.94709   
     axis 0 0 0   XYZ
    dof rx ry rz
    limits (-20.0 45.0)
           (-30.0 30.0)
           (-30.0 30.0)
  end
  begin
     id 13 
     name thorax
     direction 0.00907706 0.997048 0.0762461   
     length 1.95722   
     axis 0 0 0   XYZ
    dof rx ry rz
    limits (-20.0 45.0)
           (-30.0 30.0)
           (-30.0 30.0)
  end
  begin
     id 14 
     name lowerneck
     direction -0.0481835 0.99872 -0.0153927   
     length 1.63078   
     axis 0 0 0   XYZ
    dof rx ry rz
    limits (-20.0 45.0)
           (-30.0 30.0)
           (-30.0 30.0)
  end
  begin
     id 15 
     name upperneck
     direction 0.0859716 0.979226 -0.183644   
     length 1.62591   
     axis 0 0 0   XYZ
    dof rx ry rz
    limits (-20.0 45.0)
           (-30.0 30.0)
           (-30.0 30.0)
  end
  begin
     id 16
     name head
     direction 0.0324821 0.997629 -0.0606773  
     length 1.64811  
     axis 0 0 0   XYZ
    dof rx ry rz
    limits (-20.0 45.0)
           (-30.0 30.0)
           (-30.0 30.0)
  end
  begin
     id 17 
     name lclavicle
     direction 0.939609 0.311019 0.142835  
     length 3.70647  
     axis 0 0 0   XYZ
    dof ry rz
    limits (-20.0 10.0)
           (0.0 20.0)
  end
  begin
     id 18 
     name lhumerus
     direction 1 -4.48963e-011 -1.59838e-027   
     length 4.59207   
     axis 180 -30 -90   XYZ
    dof rx ry rz
    limits (-60.0 90.0)
           (-90.0 90.0)
           (-90.0 90.0)
  end
  begin
     id 19
     name lradius
     direction 1 -4.48957e-011 -1.3483e-026   
     length 2.98109   
     axis 180 -30 -90   XYZ
    dof rx
    limits (-10.0 170.0)
  end
  begin
     id 20
     name lwrist
     direction 1 -4.48954e-011 -3.11579e-026   
     length 1.49055   
     axis 2.00652e-014 90 90   XYZ
    dof ry
    limits (-180.0 0.0)
 end
  begin
     id 21 
     name lhand
     direction 1 -4.4911e-011 -6.23158e-026   
     length 0.480203   
     axis 3.97628e-014 90 90   XYZ
    dof rx rz
    limits (-90.0 90.0)
           (-45.0 45.0)
  end
  begin
     id 22 
     name lfingers
     direction 1 -4.48893e-011 -1.24632e-025   
     length 0.387152   
     axis 7.95256e-014 90 90   XYZ
    dof rx
    limits (0.0 90.0)
  end
  begin
     id 23
     name lthumb
     direction 0.707107 -6.35013e-011 0.707107   
     length 0.555875   
     axis -90 45 2.85299e-015   XYZ
    dof rx rz
    limits (-45.0 45.0)
           (-45.0 45.0)
  end
  begin
     id 24 
     name rclavicle
     direction -0.950396 0.30392 0.0661859   
     length 3.70894  
     axis 0 0 0   XYZ 
    dof ry rz
    limits (-10.0 20.0)
           (-20.0 0.0)
  end
  begin
     id 25 
     name rhumerus
     direction -1 -4.48957e-011 -2.96677e-027  
     length 4.76508   
     axis 180 30 90   XYZ
    dof rx ry rz
    limits (-90.0 60.0)
           (-90.0 90.0)
           (-90.0 90.0)
  end
  begin
     id 26 
     name rradius
     direction -1 -4.48974e-011 -1.44501e-026   
     length 2.78902   
     axis 180 30 90   XYZ
    dof rx
    limits (-10.0 170.0)
  end
  begin
     id 27 
     name rwrist
     direction -1 -4.48978e-011 -3.11579e-026   
     length 1.39451   
     axis 2.00652e-014 -90 -90   XYZ
    dof ry
    limits (-180.0 0.0)
  end
  begin
     id 28
     name rhand
     direction -1 -4.48956e-011 -6.23158e-026   
     length 0.721303   
     axis 3.97628e-014 -90 -90   XYZ
    dof rx rz
    limits (-90.0 90.0)
           (-45.0 45.0)
  end
  begin
     id 29
     name rfingers
     direction -1 -4.4899e-011 -1.24632e-025   
     length 0.581533   
     axis 7.95256e-014 -90 -90   XYZ
    dof rx
    limits (0.0 90.0)
  end
  begin
     id 30
     name rthumb
     direction -0.707107 -6.34911e-011 0.707107   
     length 0.834968   
     axis -90 -45 -2.85299e-015   XYZ
    dof rx rz
    limits (-45.0 45.0)
           (-45.0 45.0)
  end
:hierarchy
  begin
    root lhipjoint rhipjoint lowerback
    lhipjoint lfemur
    lfemur ltibia
    ltibia lfoot
    lfoot ltoes
    rhipjoint rfemur
    rfemur rtibia
    rtibia rfoot
    rfoot rtoes
    lowerback upperback
    upperback thorax
    thorax lowerneck lclavicle rclavicle
    lowerneck upperneck
    upperneck head
    lclavicle lhumerus
    lhumerus lradius
    lradius lwrist
    lwrist lhand lthumb
    lhand lfingers
    rclavicle rhumerus
    rhumerus rradius
    rradius rwrist
    rwrist rhand rthumb
    rhand rfingers
  end

#!OML:ASF I:\salsa\salsa 7_09\Patient 1\Session 1\dancerfemale.ASF
:FULLY-SPECIFIED
:DEGREES
59
root 23.8778 15.9009 0.664807 -85.1134 -88.0641 87.7642
lowerback -0.828447 1.83946 -3.55101
upperback -5.65633 2.19791 -1.16872
thorax -5.48724 1.17553 0.688851
lowerneck -4.29937 -3.43436 -8.42551
upperneck 11.5851 -5.40317 10.9625
head 4.67499 -2.51596 4.49054
rclavicle 4.6118e-014 -6.75868e-015
rhumerus -50.0448 -41.0706 -65.1774
rradius 29.064
rwrist 5.21561
rhand 4.35498 41.147
rfingers 7.12502
rthumb 29.7546 13.5155
lclavicle 4.6118e-014 -6.75868e-015
lhumerus -47.2033 27.338 74.9368
lradius 37.5287
lwrist -14.7849
lhand -24.2129 37.1739
lfingers 7.12502
lthumb 2.27174 67.1415
rfemur -12.3114 -0.501332 18.1814
rtibia 27.766
rfoot -24.368 -10.3289
rtoes -9.4418
lfemur -11.0268 -0.0338715 -23.2248
ltibia 32.0472
lfoot -26.2465 4.72111
ltoes -21.6679
60
root 23.8778 15.9009 0.6646 -82.885 -88.061 85.5388
lowerback -0.815947 1.84895 -3.55264
upperback -5.65747 2.20898 -1.18981
thorax -5.49528 1.1806 0.666971
lowerneck -4.27575 -3.48055 -8.47411
upperneck 11.6034 -5.46591 10.9642
head 4.68429 -2.54939 4.49559
rclavicle -1.89342e-014 -6.75868e-015
rhumerus -50.1409 -41.1139 -65.0624
rradius 29.022
rwrist 5.22172
rhand 4.38774 41.1318
rfingers 7.12502
rthumb 29.7858 13.5059
lclavicle -1.89342e-014 -6.75868e-015
lhumerus -47.1959 27.3859 74.8772
lradius 37.4387
lwrist -15.0068
lhand -24.0775 37.6091
lfingers 7.12502
lthumb 2.40252 67.5753
rfemur -12.3074 -0.508129 18.1886
rtibia 27.7807
rfoot -24.3633 -10.3806
rtoes -9.55217
lfemur -11.0344 -0.0853221 -23.2172
ltibia 32.0435
lfoot -26.2274 4.69568
ltoes -21.6527
61
root 23.8771 15.9 0.665306 -80.979 -88.0168 83.6352
lowerback -0.809766 1.84418 -3.5644
upperback -5.66139 2.2 -1.22254
thorax -5.50184 1.17572 0.639706
lowerneck -4.24347 -3.48781 -8.64802
upperneck 11.6327 -5.49052 11.1444
head 4.69907 -2.56123 4.5813
rclavicle -5.46658e-016 2.78299e-015
rhumerus -50.2782 -41.1433 -64.9185
rradius 28.9885
rwrist 5.30754
rhand 4.42037 41.3229
rfingers 7.12502
rthumb 29.817 13.7027
lclavicle -5.46658e-016 2.78299e-015
lhumerus -47.2174 27.3397 74.884
lradius 37.4323
lwrist -15.1566
lhand -23.9878 37.9499
lfingers 7.12502
lthumb 2.48909 67.9151
rfemur -12.3038 -0.570705 18.1456
rtibia 27.7916
rfoot -24.3659 -10.3745
rtoes -9.85956
lfemur -11.0472 -0.111635 -23.2666
ltibia 32.0393
lfoot -26.174 4.69966
ltoes -21.885
62
root 23.8762 15.899 0.665181 -79.5339 -87.9502 82.1826
lowerback -0.809185 1.83393 -3.6164
upperback -5.65211 2.1838 -1.25311
thorax -5.49291 1.16904 0.637879
lowerneck -4.23743 -3.48183 -8.76236
upperneck 11.6779 -5.4972 11.2879
head 4.71886 -2.56267 4.64628
rclavicle -2.28602e-014 -8.74653e-015
rhumerus -50.4025 -41.1406 -64.818
rradius 29.0219
rwrist 5.37936
rhand 4.47336 41.4776
rfingers 7.12502
rthumb 29.8675 13.8664
lclavicle -2.28602e-014 -8.74653e-015
lhumerus -47.2187 27.2133 74.9859
lradius 37.5221
lwrist -15.0176
lhand -23.9344 37.819
lfingers 7.12502
lthumb 2.54076 67.7836
rfemur -12.2846 -0.620943 18.0804
rtibia 27.7967
rfoot -24.3978 -10.3977
rtoes -9.694
lfemur -11.046 -0.115097 -23.3325
ltibia 32.0366
lfoot -26.1447 4.66861
ltoes -22.0137
63
root 23.8754 15.8989 0.664776 -78.8734 -87.9514 81.5016
lowerback -0.792917 1.8338 -3.60305
upperback -5.63831 2.18354 -1.26705
thorax -5.48639 1.16791 0.615818
lowerneck -4.2091 -3.47797 -8.70548
upperneck 11.6767 -5.49061 11.2254
head 4.7099 -2.56106 4.61761
rclavicle -2.5196e-014 8.74653e-015
rhumerus -50.5075 -41.1541 -64.749
rradius 29.0784
rwrist 5.39818
rhand 4.54766 41.4308
rfingers 7.12502
rthumb 29.9384 13.8324
lclavicle -2.5196e-014 8.74653e-015
lhumerus -47.1764 27.1218 75.0879
lradius 37.5812
lwrist -14.7965
lhand -23.9207 37.3931
lfingers 7.12502
lthumb 2.55397 67.3576
rfemur -12.2479 -0.620671 18.0904
rtibia 27.79
rfoot -24.3802 -10.4572
rtoes -9.67218
lfemur -11.0227 -0.100775 -23.3186
ltibia 32.0425
lfoot -26.1536 4.623
ltoes -22.0462
